# xmcd
#
# Track frame offsets:
#	150
#	44243
#	78178
#	109231
#	138602
#	203615
#	228253
#	233187
#	236278
#
# Disc length: 3360 seconds
#
# Revision: 0
# Processed by: cddbd v1.5.1PL2 Copyright (c) Steve Scherf et al.
# Submitted via: EasyCDDAExtractor 8.2.3.1
#
DISCID=720d1e09
DTITLE=Paul Barrere and Fred Tackett - Live - Iron Horse Cafe 12-10-02 disc 2
DYEAR=2002
DGENRE=
TTITLE0=Tears Of Rage
TTITLE1=Eula
TTITLE2=Old Folks Boogie
TTITLE3=Everything I Do Gonna Be Funky
TTITLE4=Dixie Chicken
TTITLE5=Willin'>
TTITLE6=Don't Bogart That Joint>
TTITLE7=Willin'
TTITLE8=Feat Don't Fail Me Now
EXTD=
EXTT0=
EXTT1=
EXTT2=
EXTT3=
EXTT4=
EXTT5=
EXTT6=
EXTT7=
EXTT8=
PLAYORDER=
